<mxfile host="65bd71144e">
    <diagram id="Ty2NjuelVkugs8TiWOgl" name="第 1 页">
        <mxGraphModel dx="689" dy="1709" grid="1" gridSize="10" guides="1" tooltips="1" connect="1" arrows="1" fold="1" page="1" pageScale="1" pageWidth="1920" pageHeight="1200" background="#000000" math="0" shadow="0">
            <root>
                <mxCell id="0"/>
                <mxCell id="1" parent="0"/>
                <mxCell id="179" value="发起端左侧菜单流程图" style="swimlane;childLayout=stackLayout;resizeParent=1;resizeParentMax=0;startSize=20;rounded=1;" parent="1" vertex="1">
                    <mxGeometry x="120" y="-261" width="920" height="820" as="geometry"/>
                </mxCell>
                <mxCell id="180" value="PC" style="swimlane;startSize=20;rounded=1;strokeWidth=0;" parent="179" vertex="1">
                    <mxGeometry y="20" width="920" height="800" as="geometry">
                        <mxRectangle y="20" width="30" height="771" as="alternateBounds"/>
                    </mxGeometry>
                </mxCell>
                <mxCell id="446" style="edgeStyle=none;html=1;exitX=1;exitY=0.5;exitDx=0;exitDy=0;entryX=0;entryY=0.5;entryDx=0;entryDy=0;" edge="1" parent="180" source="182" target="416">
                    <mxGeometry relative="1" as="geometry">
                        <Array as="points">
                            <mxPoint x="120" y="402"/>
                            <mxPoint x="120" y="280"/>
                            <mxPoint x="120" y="125"/>
                        </Array>
                    </mxGeometry>
                </mxCell>
                <mxCell id="447" style="edgeStyle=none;html=1;exitX=1;exitY=0.5;exitDx=0;exitDy=0;entryX=0;entryY=0.5;entryDx=0;entryDy=0;" edge="1" parent="180" source="182" target="290">
                    <mxGeometry relative="1" as="geometry">
                        <Array as="points">
                            <mxPoint x="120" y="402"/>
                            <mxPoint x="120" y="280"/>
                            <mxPoint x="120" y="65"/>
                        </Array>
                    </mxGeometry>
                </mxCell>
                <mxCell id="448" style="edgeStyle=none;html=1;exitX=1;exitY=0.5;exitDx=0;exitDy=0;entryX=0;entryY=0.5;entryDx=0;entryDy=0;" edge="1" parent="180" source="182" target="421">
                    <mxGeometry relative="1" as="geometry">
                        <Array as="points">
                            <mxPoint x="120" y="402"/>
                            <mxPoint x="120" y="280"/>
                            <mxPoint x="120" y="365"/>
                            <mxPoint x="120" y="554"/>
                        </Array>
                    </mxGeometry>
                </mxCell>
                <mxCell id="449" style="edgeStyle=none;html=1;exitX=1;exitY=0.5;exitDx=0;exitDy=0;entryX=0;entryY=0.5;entryDx=0;entryDy=0;" edge="1" parent="180" source="182" target="432">
                    <mxGeometry relative="1" as="geometry">
                        <Array as="points">
                            <mxPoint x="120" y="402"/>
                            <mxPoint x="120" y="280"/>
                            <mxPoint x="120" y="425"/>
                            <mxPoint x="120" y="666"/>
                        </Array>
                    </mxGeometry>
                </mxCell>
                <mxCell id="677" style="edgeStyle=none;html=1;exitX=1;exitY=0.5;exitDx=0;exitDy=0;entryX=0;entryY=0.5;entryDx=0;entryDy=0;fontSize=10;fontColor=#FFFFFF;" edge="1" parent="180" source="182" target="433">
                    <mxGeometry relative="1" as="geometry">
                        <Array as="points">
                            <mxPoint x="120" y="402"/>
                            <mxPoint x="120" y="726"/>
                        </Array>
                    </mxGeometry>
                </mxCell>
                <mxCell id="678" style="edgeStyle=none;html=1;exitX=1;exitY=0.5;exitDx=0;exitDy=0;entryX=0;entryY=0.5;entryDx=0;entryDy=0;fontSize=10;fontColor=#FFFFFF;" edge="1" parent="180" source="182" target="417">
                    <mxGeometry relative="1" as="geometry">
                        <Array as="points">
                            <mxPoint x="120" y="402"/>
                            <mxPoint x="120" y="185"/>
                        </Array>
                    </mxGeometry>
                </mxCell>
                <mxCell id="679" style="edgeStyle=none;html=1;exitX=1;exitY=0.5;exitDx=0;exitDy=0;entryX=0;entryY=0.5;entryDx=0;entryDy=0;fontSize=10;fontColor=#FFFFFF;" edge="1" parent="180" source="182" target="419">
                    <mxGeometry relative="1" as="geometry">
                        <Array as="points">
                            <mxPoint x="120" y="402"/>
                            <mxPoint x="120" y="245"/>
                        </Array>
                    </mxGeometry>
                </mxCell>
                <mxCell id="182" value="开&lt;br&gt;始" style="rounded=1;whiteSpace=wrap;html=1;fillColor=#f0a30a;fontColor=#000000;strokeColor=#BD7000;" parent="180" vertex="1">
                    <mxGeometry x="40" y="352" width="30" height="99" as="geometry"/>
                </mxCell>
                <mxCell id="454" value="&lt;font color=&quot;#ff9933&quot;&gt;事件驱动&lt;/font&gt;" style="edgeStyle=none;html=1;exitX=1;exitY=0.5;exitDx=0;exitDy=0;entryX=0;entryY=0.5;entryDx=0;entryDy=0;" edge="1" parent="180" source="290" target="299">
                    <mxGeometry relative="1" as="geometry"/>
                </mxCell>
                <mxCell id="290" value="&lt;span style=&quot;font-size: 10px&quot;&gt;文档&lt;/span&gt;" style="rounded=0;whiteSpace=wrap;html=1;" parent="180" vertex="1">
                    <mxGeometry x="164" y="50" width="95" height="30" as="geometry"/>
                </mxCell>
                <mxCell id="513" style="edgeStyle=none;html=1;exitX=1;exitY=0.5;exitDx=0;exitDy=0;entryX=0;entryY=0.5;entryDx=0;entryDy=0;" edge="1" parent="180" source="299" target="484">
                    <mxGeometry relative="1" as="geometry"/>
                </mxCell>
                <mxCell id="515" value="切换到" style="edgeLabel;html=1;align=center;verticalAlign=middle;resizable=0;points=[];" vertex="1" connectable="0" parent="513">
                    <mxGeometry x="-0.1372" y="4" relative="1" as="geometry">
                        <mxPoint as="offset"/>
                    </mxGeometry>
                </mxCell>
                <mxCell id="299" value="&lt;span style=&quot;font-size: 10px&quot;&gt;文档组件&lt;/span&gt;" style="rounded=0;whiteSpace=wrap;html=1;fillColor=#1ba1e2;fontColor=#ffffff;strokeColor=#006EAF;" parent="180" vertex="1">
                    <mxGeometry x="360" y="50" width="80" height="30" as="geometry"/>
                </mxCell>
                <mxCell id="455" style="edgeStyle=none;html=1;exitX=1;exitY=0.5;exitDx=0;exitDy=0;entryX=0;entryY=0.5;entryDx=0;entryDy=0;" edge="1" parent="180" source="416" target="482">
                    <mxGeometry relative="1" as="geometry"/>
                </mxCell>
                <mxCell id="457" value="&lt;font color=&quot;#ff9933&quot;&gt;事件驱动&lt;/font&gt;" style="edgeLabel;html=1;align=center;verticalAlign=middle;resizable=0;points=[];" vertex="1" connectable="0" parent="455">
                    <mxGeometry x="0.0171" y="2" relative="1" as="geometry">
                        <mxPoint as="offset"/>
                    </mxGeometry>
                </mxCell>
                <mxCell id="416" value="&lt;span style=&quot;font-size: 10px&quot;&gt;白板&lt;/span&gt;" style="rounded=0;whiteSpace=wrap;html=1;" vertex="1" parent="180">
                    <mxGeometry x="164" y="110" width="95" height="30" as="geometry"/>
                </mxCell>
                <mxCell id="516" value="&lt;font color=&quot;#ff9933&quot;&gt;事件驱动&lt;/font&gt;" style="edgeStyle=none;html=1;exitX=1;exitY=0.5;exitDx=0;exitDy=0;entryX=0;entryY=0.5;entryDx=0;entryDy=0;" edge="1" parent="180" source="417" target="483">
                    <mxGeometry relative="1" as="geometry">
                        <Array as="points"/>
                    </mxGeometry>
                </mxCell>
                <mxCell id="417" value="&lt;span style=&quot;font-size: 10px&quot;&gt;桌面共享&lt;/span&gt;" style="rounded=0;whiteSpace=wrap;html=1;" vertex="1" parent="180">
                    <mxGeometry x="164" y="170" width="95" height="30" as="geometry"/>
                </mxCell>
                <mxCell id="418" value="结&lt;br&gt;束" style="rounded=1;whiteSpace=wrap;html=1;fillColor=#f0a30a;fontColor=#000000;strokeColor=#BD7000;" vertex="1" parent="180">
                    <mxGeometry x="890" y="345.5" width="30" height="99" as="geometry"/>
                </mxCell>
                <mxCell id="419" value="&lt;span style=&quot;font-size: 10px&quot;&gt;插播文件&lt;/span&gt;" style="rounded=0;whiteSpace=wrap;html=1;" vertex="1" parent="180">
                    <mxGeometry x="164" y="230" width="95" height="30" as="geometry"/>
                </mxCell>
                <mxCell id="636" style="edgeStyle=none;html=1;exitX=1;exitY=0.5;exitDx=0;exitDy=0;entryX=0;entryY=0.75;entryDx=0;entryDy=0;" edge="1" parent="180" source="420" target="576">
                    <mxGeometry relative="1" as="geometry">
                        <Array as="points">
                            <mxPoint x="320" y="401"/>
                            <mxPoint x="320" y="305"/>
                        </Array>
                    </mxGeometry>
                </mxCell>
                <mxCell id="637" style="edgeStyle=none;html=1;exitX=1;exitY=0.5;exitDx=0;exitDy=0;entryX=0;entryY=0.5;entryDx=0;entryDy=0;" edge="1" parent="180" source="420" target="632">
                    <mxGeometry relative="1" as="geometry"/>
                </mxCell>
                <mxCell id="638" style="edgeStyle=none;html=1;exitX=1;exitY=0.5;exitDx=0;exitDy=0;entryX=0;entryY=0.5;entryDx=0;entryDy=0;" edge="1" parent="180" source="420" target="577">
                    <mxGeometry relative="1" as="geometry">
                        <Array as="points">
                            <mxPoint x="320" y="401"/>
                            <mxPoint x="320" y="332"/>
                        </Array>
                    </mxGeometry>
                </mxCell>
                <mxCell id="639" style="edgeStyle=none;html=1;exitX=1;exitY=0.5;exitDx=0;exitDy=0;entryX=0;entryY=0.5;entryDx=0;entryDy=0;" edge="1" parent="180" source="420" target="578">
                    <mxGeometry relative="1" as="geometry">
                        <Array as="points">
                            <mxPoint x="320" y="401"/>
                            <mxPoint x="320" y="366"/>
                        </Array>
                    </mxGeometry>
                </mxCell>
                <mxCell id="640" style="edgeStyle=none;html=1;exitX=1;exitY=0.5;exitDx=0;exitDy=0;entryX=0;entryY=0.5;entryDx=0;entryDy=0;" edge="1" parent="180" source="420" target="633">
                    <mxGeometry relative="1" as="geometry">
                        <Array as="points">
                            <mxPoint x="320" y="401"/>
                            <mxPoint x="320" y="433"/>
                        </Array>
                    </mxGeometry>
                </mxCell>
                <mxCell id="641" style="edgeStyle=none;html=1;exitX=1;exitY=0.5;exitDx=0;exitDy=0;entryX=0;entryY=0.5;entryDx=0;entryDy=0;" edge="1" parent="180" source="420" target="634">
                    <mxGeometry relative="1" as="geometry">
                        <Array as="points">
                            <mxPoint x="320" y="401"/>
                            <mxPoint x="320" y="467"/>
                        </Array>
                    </mxGeometry>
                </mxCell>
                <mxCell id="642" style="edgeStyle=none;html=1;exitX=1;exitY=0.5;exitDx=0;exitDy=0;entryX=0;entryY=0.5;entryDx=0;entryDy=0;" edge="1" parent="180" source="420" target="635">
                    <mxGeometry relative="1" as="geometry">
                        <Array as="points">
                            <mxPoint x="320" y="401"/>
                            <mxPoint x="320" y="500"/>
                        </Array>
                    </mxGeometry>
                </mxCell>
                <mxCell id="420" value="&lt;span style=&quot;font-size: 10px&quot;&gt;互动工具&lt;/span&gt;" style="rounded=0;whiteSpace=wrap;html=1;" vertex="1" parent="180">
                    <mxGeometry x="164" y="386" width="95" height="30" as="geometry"/>
                </mxCell>
                <mxCell id="421" value="&lt;span style=&quot;font-size: 10px&quot;&gt;分组讨论&lt;/span&gt;" style="rounded=0;whiteSpace=wrap;html=1;" vertex="1" parent="180">
                    <mxGeometry x="164" y="539.25" width="95" height="30" as="geometry"/>
                </mxCell>
                <mxCell id="432" value="&lt;span style=&quot;font-size: 10px&quot;&gt;分享&lt;/span&gt;" style="rounded=0;whiteSpace=wrap;html=1;" vertex="1" parent="180">
                    <mxGeometry x="164" y="651" width="95" height="30" as="geometry"/>
                </mxCell>
                <mxCell id="433" value="&lt;span style=&quot;font-size: 10px&quot;&gt;退出小组&lt;/span&gt;" style="rounded=0;whiteSpace=wrap;html=1;" vertex="1" parent="180">
                    <mxGeometry x="164" y="711" width="95" height="30" as="geometry"/>
                </mxCell>
                <mxCell id="514" value="切换到" style="edgeStyle=none;html=1;exitX=1;exitY=0.5;exitDx=0;exitDy=0;entryX=0;entryY=0.5;entryDx=0;entryDy=0;" edge="1" parent="180" source="482" target="512">
                    <mxGeometry relative="1" as="geometry"/>
                </mxCell>
                <mxCell id="482" value="&lt;span style=&quot;font-size: 10px&quot;&gt;文档组件&lt;/span&gt;" style="rounded=0;whiteSpace=wrap;html=1;fillColor=#1ba1e2;fontColor=#ffffff;strokeColor=#006EAF;" vertex="1" parent="180">
                    <mxGeometry x="360" y="110" width="80" height="30" as="geometry"/>
                </mxCell>
                <mxCell id="520" value="开启" style="edgeStyle=none;html=1;exitX=1;exitY=0.5;exitDx=0;exitDy=0;entryX=0;entryY=0.5;entryDx=0;entryDy=0;" edge="1" parent="180" source="483" target="519">
                    <mxGeometry relative="1" as="geometry"/>
                </mxCell>
                <mxCell id="483" value="&lt;span style=&quot;color: rgb(240 , 240 , 240) ; font-size: 10px&quot;&gt;桌面共享组件&lt;/span&gt;" style="rounded=0;whiteSpace=wrap;html=1;fillColor=#1ba1e2;fontColor=#ffffff;strokeColor=#006EAF;" vertex="1" parent="180">
                    <mxGeometry x="360" y="170" width="80" height="30" as="geometry"/>
                </mxCell>
                <mxCell id="655" style="edgeStyle=none;html=1;exitX=1;exitY=0.5;exitDx=0;exitDy=0;entryX=0;entryY=0.5;entryDx=0;entryDy=0;fontSize=10;" edge="1" parent="180" source="484" target="418">
                    <mxGeometry relative="1" as="geometry">
                        <Array as="points">
                            <mxPoint x="870" y="65"/>
                            <mxPoint x="870" y="395"/>
                        </Array>
                    </mxGeometry>
                </mxCell>
                <mxCell id="484" value="&lt;span style=&quot;font-size: 10px&quot;&gt;文档&lt;/span&gt;" style="rounded=0;whiteSpace=wrap;html=1;fillColor=#1ba1e2;fontColor=#ffffff;strokeColor=#006EAF;" vertex="1" parent="180">
                    <mxGeometry x="520" y="50" width="80" height="30" as="geometry"/>
                </mxCell>
                <mxCell id="656" style="edgeStyle=none;html=1;exitX=1;exitY=0.5;exitDx=0;exitDy=0;entryX=0;entryY=0.5;entryDx=0;entryDy=0;fontSize=10;" edge="1" parent="180" source="512" target="418">
                    <mxGeometry relative="1" as="geometry">
                        <Array as="points">
                            <mxPoint x="860" y="125"/>
                            <mxPoint x="860" y="395"/>
                            <mxPoint x="870" y="395"/>
                        </Array>
                    </mxGeometry>
                </mxCell>
                <mxCell id="512" value="&lt;span style=&quot;font-size: 10px&quot;&gt;白板&lt;/span&gt;" style="rounded=0;whiteSpace=wrap;html=1;fillColor=#1ba1e2;fontColor=#ffffff;strokeColor=#006EAF;" vertex="1" parent="180">
                    <mxGeometry x="520" y="110" width="80" height="30" as="geometry"/>
                </mxCell>
                <mxCell id="657" style="edgeStyle=none;html=1;exitX=1;exitY=0.5;exitDx=0;exitDy=0;entryX=0;entryY=0.5;entryDx=0;entryDy=0;fontSize=10;" edge="1" parent="180" source="519" target="418">
                    <mxGeometry relative="1" as="geometry">
                        <Array as="points">
                            <mxPoint x="850" y="185"/>
                            <mxPoint x="850" y="395"/>
                        </Array>
                    </mxGeometry>
                </mxCell>
                <mxCell id="519" value="&lt;span style=&quot;font-size: 10px&quot;&gt;共享推流&lt;/span&gt;" style="rounded=0;whiteSpace=wrap;html=1;fillColor=#1ba1e2;fontColor=#ffffff;strokeColor=#006EAF;" vertex="1" parent="180">
                    <mxGeometry x="520" y="170" width="80" height="30" as="geometry"/>
                </mxCell>
                <mxCell id="563" value="选择音视频" style="edgeStyle=none;html=1;exitX=1;exitY=0.5;exitDx=0;exitDy=0;entryX=0;entryY=0.5;entryDx=0;entryDy=0;" edge="1" parent="180" source="554" target="562">
                    <mxGeometry relative="1" as="geometry"/>
                </mxCell>
                <mxCell id="554" value="&lt;span style=&quot;color: rgb(240 , 240 , 240) ; font-size: 10px&quot;&gt;打开插播弹窗&lt;/span&gt;" style="rounded=0;whiteSpace=wrap;html=1;fillColor=#1ba1e2;fontColor=#ffffff;strokeColor=#006EAF;" vertex="1" parent="180">
                    <mxGeometry x="360" y="230" width="80" height="30" as="geometry"/>
                </mxCell>
                <mxCell id="556" value="&lt;span style=&quot;color: rgb(240 , 240 , 240) ; font-size: 10px&quot;&gt;分组讨论组件&lt;/span&gt;" style="rounded=0;whiteSpace=wrap;html=1;fillColor=#1ba1e2;fontColor=#ffffff;strokeColor=#006EAF;" vertex="1" parent="180">
                    <mxGeometry x="360" y="539.25" width="80" height="30" as="geometry"/>
                </mxCell>
                <mxCell id="557" value="&lt;font color=&quot;#ff9933&quot;&gt;事件驱动&lt;/font&gt;" style="edgeStyle=none;html=1;exitX=1;exitY=0.5;exitDx=0;exitDy=0;entryX=0;entryY=0.5;entryDx=0;entryDy=0;" edge="1" parent="180">
                    <mxGeometry relative="1" as="geometry">
                        <mxPoint x="259" y="244.5" as="sourcePoint"/>
                        <mxPoint x="360" y="244.5" as="targetPoint"/>
                    </mxGeometry>
                </mxCell>
                <mxCell id="559" value="&lt;font color=&quot;#ff9933&quot;&gt;事件驱动&lt;/font&gt;" style="edgeStyle=none;html=1;exitX=1;exitY=0.5;exitDx=0;exitDy=0;entryX=0;entryY=0.5;entryDx=0;entryDy=0;" edge="1" parent="180">
                    <mxGeometry relative="1" as="geometry">
                        <mxPoint x="259" y="553.75" as="sourcePoint"/>
                        <mxPoint x="360" y="553.75" as="targetPoint"/>
                    </mxGeometry>
                </mxCell>
                <mxCell id="560" value="事件驱动" style="edgeStyle=none;html=1;exitX=1;exitY=0.5;exitDx=0;exitDy=0;entryX=0;entryY=0.5;entryDx=0;entryDy=0;" edge="1" parent="180">
                    <mxGeometry relative="1" as="geometry">
                        <mxPoint x="259" y="665.5" as="sourcePoint"/>
                        <mxPoint x="360" y="665.5" as="targetPoint"/>
                    </mxGeometry>
                </mxCell>
                <mxCell id="572" value="选择方式" style="edgeStyle=none;html=1;exitX=1;exitY=0.5;exitDx=0;exitDy=0;entryX=0;entryY=0.5;entryDx=0;entryDy=0;" edge="1" parent="180" source="561" target="568">
                    <mxGeometry relative="1" as="geometry"/>
                </mxCell>
                <mxCell id="561" value="&lt;span style=&quot;color: rgb(240 , 240 , 240) ; font-size: 10px&quot;&gt;打开分享弹窗&lt;/span&gt;" style="rounded=0;whiteSpace=wrap;html=1;fillColor=#1ba1e2;fontColor=#ffffff;strokeColor=#006EAF;" vertex="1" parent="180">
                    <mxGeometry x="360" y="651" width="80" height="30" as="geometry"/>
                </mxCell>
                <mxCell id="658" style="edgeStyle=none;html=1;exitX=1;exitY=0.5;exitDx=0;exitDy=0;entryX=0;entryY=0.5;entryDx=0;entryDy=0;fontSize=10;" edge="1" parent="180" source="562" target="418">
                    <mxGeometry relative="1" as="geometry">
                        <Array as="points">
                            <mxPoint x="840" y="251"/>
                            <mxPoint x="840" y="395"/>
                        </Array>
                    </mxGeometry>
                </mxCell>
                <mxCell id="562" value="&lt;span style=&quot;font-size: 10px&quot;&gt;播放&lt;/span&gt;" style="rounded=0;whiteSpace=wrap;html=1;fillColor=#1ba1e2;fontColor=#ffffff;strokeColor=#006EAF;" vertex="1" parent="180">
                    <mxGeometry x="520" y="230" width="80" height="30" as="geometry"/>
                </mxCell>
                <mxCell id="570" style="edgeStyle=none;html=1;exitX=1;exitY=0.5;exitDx=0;exitDy=0;entryX=0;entryY=0.5;entryDx=0;entryDy=0;" edge="1" parent="180" source="564" target="569">
                    <mxGeometry relative="1" as="geometry"/>
                </mxCell>
                <mxCell id="571" value="调用" style="edgeLabel;html=1;align=center;verticalAlign=middle;resizable=0;points=[];" vertex="1" connectable="0" parent="570">
                    <mxGeometry x="-0.1039" y="4" relative="1" as="geometry">
                        <mxPoint as="offset"/>
                    </mxGeometry>
                </mxCell>
                <mxCell id="564" value="&lt;font color=&quot;#f0f0f0&quot;&gt;&lt;span style=&quot;font-size: 10px&quot;&gt;分组讨论组件&lt;/span&gt;&lt;/font&gt;" style="rounded=0;whiteSpace=wrap;html=1;fillColor=#1ba1e2;fontColor=#ffffff;strokeColor=#006EAF;" vertex="1" parent="180">
                    <mxGeometry x="360" y="711" width="80" height="30" as="geometry"/>
                </mxCell>
                <mxCell id="565" value="事件驱动" style="edgeStyle=none;html=1;exitX=1;exitY=0.5;exitDx=0;exitDy=0;entryX=0;entryY=0.5;entryDx=0;entryDy=0;" edge="1" parent="180">
                    <mxGeometry relative="1" as="geometry">
                        <mxPoint x="259" y="725.5" as="sourcePoint"/>
                        <mxPoint x="360" y="725.5" as="targetPoint"/>
                    </mxGeometry>
                </mxCell>
                <mxCell id="654" style="edgeStyle=none;html=1;exitX=1;exitY=0.5;exitDx=0;exitDy=0;entryX=0;entryY=0.5;entryDx=0;entryDy=0;fontSize=10;" edge="1" parent="180" source="568" target="418">
                    <mxGeometry relative="1" as="geometry">
                        <Array as="points">
                            <mxPoint x="860" y="671"/>
                            <mxPoint x="860" y="395"/>
                        </Array>
                    </mxGeometry>
                </mxCell>
                <mxCell id="568" value="&lt;span style=&quot;font-size: 10px&quot;&gt;分享到&lt;/span&gt;" style="rounded=0;whiteSpace=wrap;html=1;fillColor=#1ba1e2;fontColor=#ffffff;strokeColor=#006EAF;" vertex="1" parent="180">
                    <mxGeometry x="520" y="651" width="80" height="30" as="geometry"/>
                </mxCell>
                <mxCell id="652" style="edgeStyle=none;html=1;exitX=1;exitY=0.5;exitDx=0;exitDy=0;entryX=0;entryY=0.5;entryDx=0;entryDy=0;fontSize=10;" edge="1" parent="180" source="569" target="418">
                    <mxGeometry relative="1" as="geometry">
                        <Array as="points">
                            <mxPoint x="870" y="726"/>
                            <mxPoint x="870" y="395"/>
                        </Array>
                    </mxGeometry>
                </mxCell>
                <mxCell id="569" value="&lt;span style=&quot;font-size: 10px&quot;&gt;退出小组方法&lt;/span&gt;" style="rounded=0;whiteSpace=wrap;html=1;fillColor=#1ba1e2;fontColor=#ffffff;strokeColor=#006EAF;" vertex="1" parent="180">
                    <mxGeometry x="520" y="711" width="80" height="30" as="geometry"/>
                </mxCell>
                <mxCell id="666" value="&lt;font color=&quot;#ff9933&quot;&gt;事件驱动&lt;/font&gt;" style="edgeStyle=none;html=1;exitX=1;exitY=0.5;exitDx=0;exitDy=0;entryX=0;entryY=0.5;entryDx=0;entryDy=0;fontSize=10;" edge="1" parent="180" source="576" target="659">
                    <mxGeometry relative="1" as="geometry"/>
                </mxCell>
                <mxCell id="576" value="&lt;span style=&quot;font-size: 10px&quot;&gt;抽奖&lt;/span&gt;" style="rounded=0;whiteSpace=wrap;html=1;" vertex="1" parent="180">
                    <mxGeometry x="360" y="290" width="80" height="20" as="geometry"/>
                </mxCell>
                <mxCell id="667" value="&lt;font color=&quot;#ff9933&quot;&gt;事件驱动&lt;/font&gt;" style="edgeStyle=none;html=1;exitX=1;exitY=0.5;exitDx=0;exitDy=0;fontSize=10;" edge="1" parent="180" source="577" target="660">
                    <mxGeometry relative="1" as="geometry"/>
                </mxCell>
                <mxCell id="577" value="&lt;span style=&quot;font-size: 10px&quot;&gt;签到&lt;/span&gt;" style="rounded=0;whiteSpace=wrap;html=1;" vertex="1" parent="180">
                    <mxGeometry x="360" y="322" width="80" height="20" as="geometry"/>
                </mxCell>
                <mxCell id="668" style="edgeStyle=none;html=1;exitX=1;exitY=0.5;exitDx=0;exitDy=0;entryX=0;entryY=0.5;entryDx=0;entryDy=0;fontSize=10;" edge="1" parent="180" source="578" target="661">
                    <mxGeometry relative="1" as="geometry"/>
                </mxCell>
                <mxCell id="674" value="&lt;font color=&quot;#ff9933&quot;&gt;事件驱动&lt;/font&gt;" style="edgeLabel;html=1;align=center;verticalAlign=middle;resizable=0;points=[];fontSize=10;" vertex="1" connectable="0" parent="668">
                    <mxGeometry x="-0.0414" y="-1" relative="1" as="geometry">
                        <mxPoint as="offset"/>
                    </mxGeometry>
                </mxCell>
                <mxCell id="578" value="&lt;span style=&quot;font-size: 10px&quot;&gt;问卷&lt;/span&gt;" style="rounded=0;whiteSpace=wrap;html=1;" vertex="1" parent="180">
                    <mxGeometry x="360" y="356" width="80" height="20" as="geometry"/>
                </mxCell>
                <mxCell id="669" value="&lt;font color=&quot;#ffffff&quot;&gt;普通点击&lt;/font&gt;" style="edgeStyle=none;html=1;exitX=1;exitY=0.5;exitDx=0;exitDy=0;entryX=0;entryY=0.5;entryDx=0;entryDy=0;fontSize=10;" edge="1" parent="180" source="632" target="662">
                    <mxGeometry relative="1" as="geometry"/>
                </mxCell>
                <mxCell id="632" value="&lt;span style=&quot;font-size: 10px&quot;&gt;问答&lt;/span&gt;" style="rounded=0;whiteSpace=wrap;html=1;" vertex="1" parent="180">
                    <mxGeometry x="360" y="391" width="80" height="20" as="geometry"/>
                </mxCell>
                <mxCell id="670" style="edgeStyle=none;html=1;exitX=1;exitY=0.5;exitDx=0;exitDy=0;fontSize=10;" edge="1" parent="180" source="633" target="663">
                    <mxGeometry relative="1" as="geometry"/>
                </mxCell>
                <mxCell id="675" value="&lt;font color=&quot;#ff9933&quot;&gt;事件驱动&lt;/font&gt;" style="edgeLabel;html=1;align=center;verticalAlign=middle;resizable=0;points=[];fontSize=10;" vertex="1" connectable="0" parent="670">
                    <mxGeometry x="0.0586" y="2" relative="1" as="geometry">
                        <mxPoint as="offset"/>
                    </mxGeometry>
                </mxCell>
                <mxCell id="633" value="&lt;span style=&quot;font-size: 10px&quot;&gt;红包&lt;/span&gt;" style="rounded=0;whiteSpace=wrap;html=1;" vertex="1" parent="180">
                    <mxGeometry x="360" y="423" width="80" height="20" as="geometry"/>
                </mxCell>
                <mxCell id="671" value="&lt;font color=&quot;#ff9933&quot;&gt;事件驱动&lt;/font&gt;" style="edgeStyle=none;html=1;exitX=1;exitY=0.5;exitDx=0;exitDy=0;entryX=0;entryY=0.5;entryDx=0;entryDy=0;fontSize=10;" edge="1" parent="180" source="634" target="664">
                    <mxGeometry relative="1" as="geometry"/>
                </mxCell>
                <mxCell id="634" value="&lt;span style=&quot;font-size: 10px&quot;&gt;计时器&lt;/span&gt;" style="rounded=0;whiteSpace=wrap;html=1;" vertex="1" parent="180">
                    <mxGeometry x="360" y="457" width="80" height="20" as="geometry"/>
                </mxCell>
                <mxCell id="672" value="&lt;font color=&quot;#ff9933&quot;&gt;事件驱动&lt;/font&gt;" style="edgeStyle=none;html=1;exitX=1;exitY=0.5;exitDx=0;exitDy=0;entryX=0;entryY=0.5;entryDx=0;entryDy=0;fontSize=10;" edge="1" parent="180" source="635" target="665">
                    <mxGeometry relative="1" as="geometry"/>
                </mxCell>
                <mxCell id="635" value="&lt;span style=&quot;font-size: 10px&quot;&gt;转播&lt;/span&gt;" style="rounded=0;whiteSpace=wrap;html=1;" vertex="1" parent="180">
                    <mxGeometry x="360" y="490" width="80" height="20" as="geometry"/>
                </mxCell>
                <mxCell id="644" value="鼠标经过" style="text;html=1;strokeColor=none;fillColor=none;align=center;verticalAlign=middle;whiteSpace=wrap;rounded=0;fontSize=10;" vertex="1" parent="180">
                    <mxGeometry x="259" y="380" width="60" height="30" as="geometry"/>
                </mxCell>
                <mxCell id="647" value="是" style="edgeStyle=none;html=1;exitX=1;exitY=0.5;exitDx=0;exitDy=0;entryX=0;entryY=0.5;entryDx=0;entryDy=0;fontSize=10;" edge="1" parent="180" source="645" target="646">
                    <mxGeometry relative="1" as="geometry"/>
                </mxCell>
                <mxCell id="649" value="否" style="edgeStyle=none;html=1;exitX=0.5;exitY=1;exitDx=0;exitDy=0;entryX=0;entryY=0.5;entryDx=0;entryDy=0;fontSize=10;" edge="1" parent="180" source="645" target="648">
                    <mxGeometry relative="1" as="geometry">
                        <Array as="points">
                            <mxPoint x="515" y="606"/>
                        </Array>
                    </mxGeometry>
                </mxCell>
                <mxCell id="645" value="是否已分组？" style="rhombus;whiteSpace=wrap;html=1;fontSize=10;" vertex="1" parent="180">
                    <mxGeometry x="480" y="531" width="70" height="46.5" as="geometry"/>
                </mxCell>
                <mxCell id="574" style="edgeStyle=none;html=1;exitX=1;exitY=0.5;exitDx=0;exitDy=0;" edge="1" parent="180" source="556" target="645">
                    <mxGeometry relative="1" as="geometry">
                        <mxPoint x="500" y="554.25" as="targetPoint"/>
                    </mxGeometry>
                </mxCell>
                <mxCell id="653" style="edgeStyle=none;html=1;exitX=1;exitY=0.5;exitDx=0;exitDy=0;entryX=0;entryY=0.5;entryDx=0;entryDy=0;fontSize=10;" edge="1" parent="180" source="646" target="418">
                    <mxGeometry relative="1" as="geometry">
                        <Array as="points">
                            <mxPoint x="850" y="554"/>
                            <mxPoint x="850" y="395"/>
                        </Array>
                    </mxGeometry>
                </mxCell>
                <mxCell id="646" value="&lt;span style=&quot;font-size: 10px&quot;&gt;分组操作面板&lt;/span&gt;" style="rounded=0;whiteSpace=wrap;html=1;fillColor=#1ba1e2;fontColor=#ffffff;strokeColor=#006EAF;" vertex="1" parent="180">
                    <mxGeometry x="680" y="539.25" width="80" height="30" as="geometry"/>
                </mxCell>
                <mxCell id="650" value="设置完成" style="edgeStyle=none;html=1;exitX=1;exitY=0.5;exitDx=0;exitDy=0;fontSize=10;entryX=0.5;entryY=1;entryDx=0;entryDy=0;" edge="1" parent="180" source="648" target="646">
                    <mxGeometry relative="1" as="geometry">
                        <mxPoint x="730" y="581" as="targetPoint"/>
                        <Array as="points">
                            <mxPoint x="720" y="606"/>
                        </Array>
                    </mxGeometry>
                </mxCell>
                <mxCell id="648" value="&lt;span style=&quot;font-size: 10px&quot;&gt;分组设置弹窗&lt;/span&gt;" style="rounded=0;whiteSpace=wrap;html=1;fillColor=#1ba1e2;fontColor=#ffffff;strokeColor=#006EAF;" vertex="1" parent="180">
                    <mxGeometry x="570" y="591" width="80" height="30" as="geometry"/>
                </mxCell>
                <mxCell id="680" style="edgeStyle=none;html=1;exitX=1;exitY=0.5;exitDx=0;exitDy=0;entryX=0;entryY=0.5;entryDx=0;entryDy=0;fontSize=10;fontColor=#FFFFFF;" edge="1" parent="180" source="659" target="418">
                    <mxGeometry relative="1" as="geometry">
                        <Array as="points">
                            <mxPoint x="830" y="300"/>
                            <mxPoint x="830" y="395"/>
                        </Array>
                    </mxGeometry>
                </mxCell>
                <mxCell id="659" value="&lt;span style=&quot;color: rgb(240 , 240 , 240) ; font-size: 10px&quot;&gt;打开抽奖弹窗&lt;/span&gt;" style="rounded=0;whiteSpace=wrap;html=1;fillColor=#1ba1e2;fontColor=#ffffff;strokeColor=#006EAF;" vertex="1" parent="180">
                    <mxGeometry x="520" y="290" width="80" height="20" as="geometry"/>
                </mxCell>
                <mxCell id="660" value="&lt;span style=&quot;color: rgb(240 , 240 , 240) ; font-size: 10px&quot;&gt;打开签到弹窗&lt;/span&gt;" style="rounded=0;whiteSpace=wrap;html=1;fillColor=#1ba1e2;fontColor=#ffffff;strokeColor=#006EAF;" vertex="1" parent="180">
                    <mxGeometry x="520" y="322" width="80" height="20" as="geometry"/>
                </mxCell>
                <mxCell id="682" style="edgeStyle=none;html=1;exitX=1;exitY=0.5;exitDx=0;exitDy=0;entryX=0;entryY=0.5;entryDx=0;entryDy=0;fontSize=10;fontColor=#FFFFFF;" edge="1" parent="180" source="661" target="418">
                    <mxGeometry relative="1" as="geometry">
                        <Array as="points">
                            <mxPoint x="810" y="366"/>
                            <mxPoint x="810" y="395"/>
                        </Array>
                    </mxGeometry>
                </mxCell>
                <mxCell id="661" value="&lt;span style=&quot;color: rgb(240 , 240 , 240) ; font-size: 10px&quot;&gt;打开问卷弹窗&lt;/span&gt;" style="rounded=0;whiteSpace=wrap;html=1;fillColor=#1ba1e2;fontColor=#ffffff;strokeColor=#006EAF;" vertex="1" parent="180">
                    <mxGeometry x="520" y="356" width="80" height="20" as="geometry"/>
                </mxCell>
                <mxCell id="683" style="edgeStyle=none;html=1;exitX=1;exitY=0.5;exitDx=0;exitDy=0;entryX=0;entryY=0.5;entryDx=0;entryDy=0;fontSize=10;fontColor=#FFFFFF;" edge="1" parent="180" source="662" target="418">
                    <mxGeometry relative="1" as="geometry"/>
                </mxCell>
                <mxCell id="662" value="&lt;span style=&quot;color: rgb(240 , 240 , 240) ; font-size: 10px&quot;&gt;开启问答确认&lt;/span&gt;" style="rounded=0;whiteSpace=wrap;html=1;fillColor=#1ba1e2;fontColor=#ffffff;strokeColor=#006EAF;" vertex="1" parent="180">
                    <mxGeometry x="520" y="391" width="80" height="20" as="geometry"/>
                </mxCell>
                <mxCell id="684" style="edgeStyle=none;html=1;exitX=1;exitY=0.5;exitDx=0;exitDy=0;entryX=0;entryY=0.5;entryDx=0;entryDy=0;fontSize=10;fontColor=#FFFFFF;" edge="1" parent="180" source="663" target="418">
                    <mxGeometry relative="1" as="geometry">
                        <Array as="points">
                            <mxPoint x="820" y="431"/>
                            <mxPoint x="820" y="395"/>
                        </Array>
                    </mxGeometry>
                </mxCell>
                <mxCell id="663" value="&lt;span style=&quot;color: rgb(240 , 240 , 240) ; font-size: 10px&quot;&gt;打开红包弹窗&lt;/span&gt;" style="rounded=0;whiteSpace=wrap;html=1;fillColor=#1ba1e2;fontColor=#ffffff;strokeColor=#006EAF;" vertex="1" parent="180">
                    <mxGeometry x="520" y="423" width="80" height="20" as="geometry"/>
                </mxCell>
                <mxCell id="685" style="edgeStyle=none;html=1;exitX=1;exitY=0.5;exitDx=0;exitDy=0;entryX=0;entryY=0.5;entryDx=0;entryDy=0;fontSize=10;fontColor=#FFFFFF;" edge="1" parent="180" source="664" target="418">
                    <mxGeometry relative="1" as="geometry">
                        <Array as="points">
                            <mxPoint x="830" y="467"/>
                            <mxPoint x="830" y="395"/>
                        </Array>
                    </mxGeometry>
                </mxCell>
                <mxCell id="664" value="&lt;span style=&quot;color: rgb(240 , 240 , 240) ; font-size: 10px&quot;&gt;打开计时器组件&lt;/span&gt;" style="rounded=0;whiteSpace=wrap;html=1;fillColor=#1ba1e2;fontColor=#ffffff;strokeColor=#006EAF;" vertex="1" parent="180">
                    <mxGeometry x="520" y="457" width="80" height="20" as="geometry"/>
                </mxCell>
                <mxCell id="686" style="edgeStyle=none;html=1;exitX=1;exitY=0.5;exitDx=0;exitDy=0;entryX=0;entryY=0.5;entryDx=0;entryDy=0;fontSize=10;fontColor=#FFFFFF;" edge="1" parent="180" source="665" target="418">
                    <mxGeometry relative="1" as="geometry">
                        <Array as="points">
                            <mxPoint x="840" y="500"/>
                            <mxPoint x="840" y="395"/>
                        </Array>
                    </mxGeometry>
                </mxCell>
                <mxCell id="665" value="&lt;span style=&quot;color: rgb(240 , 240 , 240) ; font-size: 10px&quot;&gt;打开转播弹窗&lt;/span&gt;" style="rounded=0;whiteSpace=wrap;html=1;fillColor=#1ba1e2;fontColor=#ffffff;strokeColor=#006EAF;" vertex="1" parent="180">
                    <mxGeometry x="520" y="490" width="80" height="20" as="geometry"/>
                </mxCell>
                <mxCell id="681" style="edgeStyle=none;html=1;exitX=1;exitY=0.5;exitDx=0;exitDy=0;fontSize=10;fontColor=#FFFFFF;entryX=0;entryY=0.5;entryDx=0;entryDy=0;" edge="1" parent="180" source="660" target="418">
                    <mxGeometry relative="1" as="geometry">
                        <mxPoint x="800" y="381" as="targetPoint"/>
                        <Array as="points">
                            <mxPoint x="820" y="332"/>
                            <mxPoint x="820" y="395"/>
                        </Array>
                    </mxGeometry>
                </mxCell>
                <mxCell id="676" style="edgeStyle=none;html=1;exitX=1;exitY=0.5;exitDx=0;exitDy=0;fontSize=10;fontColor=#FFFFFF;" edge="1" parent="1" source="182">
                    <mxGeometry relative="1" as="geometry">
                        <mxPoint x="280" y="161" as="targetPoint"/>
                    </mxGeometry>
                </mxCell>
            </root>
        </mxGraphModel>
    </diagram>
</mxfile>